# xmcd
#
# Track frame offsets:
#	150
#	20521
#	37938
#	54063
#	70907
#	88594
#	103775
#	119080
#	136084
#	152247
#	167045
#	183196
#	201367
#	219256
#	244062
#	263543
#	280410
#	304739
#
# Disc length: 4293 seconds
# Revision: 0
# Processed by: cddbd v1.5.2PL0 Copyright (c) Steve Scherf et al.
# Submitted via: dBpowerAMP V12.0
#
DISCID=f610c312
DTITLE=Glenn Lewis - Glenn Lewis
DYEAR=2005
DGENRE=Rhythmic Soul
TTITLE0=Your Love Is Too Much
TTITLE1=Back For More
TTITLE2=She's Got It feat. Jay-Z
TTITLE3=ABC
TTITLE4=The Greatest Love Of All
TTITLE5=Shame On You
TTITLE6=Missing My Woman
TTITLE7=Find Our Way
TTITLE8=Selfishly
TTITLE9=The Most
TTITLE10=Ordinary Day
TTITLE11=We've Come Too Far
TTITLE12=Fly Away
TTITLE13=Gone Again
TTITLE14=Fall With You
TTITLE15=From The Bottom To The Top
TTITLE16=Under The Stars
TTITLE17=Rock With You
EXTD=
EXTT0=
EXTT1=
EXTT2=
EXTT3=
EXTT4=
EXTT5=
EXTT6=
EXTT7=
EXTT8=
EXTT9=
EXTT10=
EXTT11=
EXTT12=
EXTT13=
EXTT14=
EXTT15=
EXTT16=
EXTT17=
PLAYORDER=
